<svg width="501.00000000000006" height="499.99999999999994" xmlns="http://www.w3.org/2000/svg">
 <title/>

 <g>
  <title>background</title>
  <rect fill="none" id="canvas_background" height="502" width="503" y="-1" x="-1"/>
 </g>
 <g>
  <title>Layer 1</title>
  <path fill="#cccccc" id="svg_1" d="m379.83,451l-228.83,0a50.17,50.17 0 0 1 -50.11,-50.11l0,-301.78a50.17,50.17 0 0 1 50.11,-50.11l150.1,0a15,15 0 0 1 10.61,4.39l113.84,113.88a15,15 0 0 1 4.39,10.61l0,223a50.17,50.17 0 0 1 -50.11,50.12zm-228.83,-372a20.13,20.13 0 0 0 -20.11,20.11l0,301.78a20.13,20.13 0 0 0 20.11,20.11l228.83,0a20.13,20.13 0 0 0 20.11,-20.11l0,-216.8l-105.09,-105.09l-143.85,0z"/>
  <path fill="#cccccc" id="svg_2" d="m414.94,192.88l-78.77,0a50.17,50.17 0 0 1 -50.11,-50.11l0,-78.77a15,15 0 0 1 30,0l0,78.77a20.13,20.13 0 0 0 20.11,20.11l78.77,0a15,15 0 0 1 0,30z"/>
  <path fill="#cccccc" id="svg_3" d="m265.4,376a15,15 0 0 1 -10.61,-4.4l-54.45,-54.44a15,15 0 1 1 21.21,-21.22l43.85,43.84l43.84,-43.84a15,15 0 1 1 21.21,21.22l-54.45,54.39a15,15 0 0 1 -10.6,4.45z"/>
  <path fill="#cccccc" id="svg_4" d="m265.4,366a15,15 0 0 1 -15,-15l0,-119a15,15 0 0 1 30,0l0,119a15,15 0 0 1 -15,15z"/>
 </g>
</svg>