<?xml version="1.0" encoding="utf-8"?>
<!-- Generator: Adobe Illustrator 27.0.1, SVG Export Plug-In . SVG Version: 6.00 Build 0)  -->
<svg version="1.1" id="Camada_1" xmlns="http://www.w3.org/2000/svg" xmlns:xlink="http://www.w3.org/1999/xlink" x="0px" y="0px"
	 viewBox="0 0 1920 1080" style="enable-background:new 0 0 1920 1080;" xml:space="preserve">
<style type="text/css">
	.st0{fill:#F9F9F9;}
	.st1{font-family:'Exo2-Bold';}
	.st2{font-size:108.4788px;}
</style>
<path class="st0" d="M454.8,751.9h-0.1c-13.7,0-26.6-5.4-36.3-15.1L155.8,473c-20-20.1-19.9-52.8,0.2-72.7l263.9-262.6
	c9.7-9.7,22.6-15,36.2-15h0.1c13.7,0,26.6,5.4,36.3,15.1l66.2,66.5c5.7,5.7,5.7,15,0,20.7s-15,5.7-20.7-0.1l-66.2-66.5
	c-4.2-4.2-9.7-6.5-15.6-6.5c-6.1,0.2-11.4,2.3-15.6,6.4L176.7,421.1c-8.6,8.6-8.6,22.6-0.1,31.3l262.5,263.8
	c8.6,8.6,22.6,8.7,31.2,0.1l66.5-66.1c5.7-5.7,15-5.7,20.7,0.1c5.7,5.7,5.7,15-0.1,20.7L491.1,737
	C481.4,746.6,468.5,751.9,454.8,751.9"/>
<path class="st0" d="M218.1,379.9l0.3-129.2c0.1-28.3,23.1-51.3,51.4-51.3h0.1l129.2,0.3L218.1,379.9z M269.8,228.7
	c-12.1,0-22,9.9-22.1,22l-0.1,58.4l80.7-80.3L269.8,228.7L269.8,228.7L269.8,228.7z"/>
<path class="st0" d="M398,674.7l-129.2-0.3c-28.4-0.1-51.4-23.2-51.3-51.5l0.3-129.1L398,674.7z M246.9,564.6l-0.1,58.4
	c0,12.2,9.9,22.1,22,22.1l58.4,0.2L246.9,564.6z"/>
<path class="st0" d="M547.2,675.1L547.2,675.1l-184.6-0.5l-10.4-4.3L222,539.5l-4.3-10.4l0.5-184.6l4.3-10.4l130.9-130.2l10.4-4.3
	l184.6,0.4c8.1,0,14.7,6.6,14.6,14.7c0,8.1-6.6,14.6-14.7,14.6h0L369.8,229L247.5,350.7l-0.4,172.4l121.7,122.2l178.5,0.5
	c8.1,0,14.7,6.6,14.6,14.7C561.8,668.6,555.3,675.1,547.2,675.1"/>
<path class="st0" d="M576.7,428.8v-86c0-9.7-7.9-17.6-17.6-17.6s-17.6,7.9-17.6,17.6v5.3c-23.2-24.3-56-39.5-92.2-39.5
	c-70.4,0-127.6,57.2-127.6,127.6c0,70.4,57.2,127.6,127.6,127.6c36.2,0,68.9-15.2,92.2-39.5v21.9c0,9.7,7.9,17.6,17.6,17.6
	s17.6-7.9,17.6-17.6V443.7c0.1-2.5,0.2-5,0.2-7.5C576.9,433.7,576.8,431.2,576.7,428.8 M449.3,528.6c-51,0-92.4-41.5-92.4-92.4
	s41.5-92.4,92.4-92.4c48.9,0,89,38.1,92.2,86.2v12.5C538.2,490.5,498.1,528.6,449.3,528.6"/>
<path class="st0" d="M916,325.2c-9.7,0-17.6,7.9-17.6,17.6v203.4c0,9.7,7.9,17.6,17.6,17.6s17.6-7.9,17.6-17.6V342.8
	C933.7,333.1,925.8,325.2,916,325.2"/>
<path class="st0" d="M993.9,231.6c-9.7,0-17.6,7.9-17.6,17.6v297c0,9.7,7.9,17.6,17.6,17.6s17.6-7.9,17.6-17.6v-297
	C1011.5,239.5,1003.6,231.6,993.9,231.6"/>
<path class="st0" d="M857.4,443.8c0.2-2.5,0.2-5,0.2-7.5s-0.1-5-0.2-7.5v-89.6c0-9.7-7.9-17.6-17.6-17.6s-17.6,7.9-17.6,17.6v9
	c-23.2-24.3-56-39.5-92.2-39.5c-70.4,0-127.6,57.2-127.6,127.6c0,70.4,57.2,127.6,127.6,127.6c36.2,0,68.9-15.2,92.2-39.5v18.2
	c0,1,0,3,0,3c0,51-41.2,92.3-92.1,92.3c-24.7,0-47.9-9.6-65.3-27.1c-6.9-6.9-18-6.9-24.9,0s-6.9,18,0,24.9
	c24.1,24.1,56.2,37.4,90.2,37.4c70.4,0,127.4-57.1,127.4-127.5C857.4,544.7,857.4,443.8,857.4,443.8 M730,528.6
	c-51,0-92.4-41.5-92.4-92.4s41.5-92.4,92.4-92.4c48.8,0,88.9,38.1,92.2,86.1v12.6C818.9,490.6,778.8,528.6,730,528.6"/>
<path class="st0" d="M1172.5,308.6c-70.4,0-127.6,57.2-127.6,127.6s57.2,127.6,127.6,127.6c28.8,0,56-9.4,78.6-27.1
	c7.7-6,9-17.1,3-24.7c-6-7.7-17.1-9-24.7-3c-16.4,12.8-36.1,19.6-56.9,19.6c-44.9,0-82.5-32.2-90.7-74.8h200.7
	c9.7,0,17.6-7.9,17.6-17.6C1300.1,365.9,1242.9,308.6,1172.5,308.6 M1081.8,418.6c8.2-42.6,45.8-74.8,90.7-74.8
	c44.9,0,82.5,32.2,90.7,74.8H1081.8z"/>
<path class="st0" d="M915.5,303.6c9.4,0,17-7.6,17-17c0-9.4-7.6-17-17-17c-9.4,0-17,7.6-17,17C898.5,296,906.1,303.6,915.5,303.6"/>
<path class="st0" d="M1017.2,743c0,25.3-6.6,45.4-38.3,45.4h-56.3c-14.2,0-24.1-5.9-24.1-24.8V647.7c0-18.9,9.9-24.8,24.1-24.8h56.3
	c23.9,0,35.7,15.6,35.7,45.4c0,17.7-5.4,32.9-23.4,35.5v1C1010.6,706.4,1017.2,721.5,1017.2,743 M929.7,692.4h34.5
	c14,0,18.2-6.2,18.2-22.7c0-14.2-4.3-22-18.5-22h-22.5c-9.5,0-11.8,2.4-11.8,11.8V692.4z M929.7,751.8c0,9.5,2.4,11.8,11.8,11.8
	h21.1c16.3,0,22.5-6.2,22.5-22.7s-6.2-23.7-20.3-23.7h-35L929.7,751.8L929.7,751.8z"/>
<path class="st0" d="M1066.9,788.5V647.7c0-18.9,9.9-24.8,24.1-24.8h59.8c30.8,0,41.4,19.2,41.4,52.3c0,34.1-10.6,55.3-36,55.3h-2.4
	v1.2l41.6,56.8h-37.8l-36.9-53.7c-3.1-4.5-5.4-9.2-5.4-14V717c0-6.6,4.7-11.4,14-11.4h10.9c17.3,0,19.9-11.6,19.9-30.5
	s-3.6-27.4-23.4-27.4H1110c-9.5,0-11.8,2.4-11.8,11.8v128.9L1066.9,788.5L1066.9,788.5L1066.9,788.5z"/>
<path class="st0" d="M1271.8,642c5.2-16.5,14.7-21,29.6-21c14.2,0,24.4,4.5,29.6,21l45.9,146.4H1344l-12.3-41.9h-60.8l-12.1,41.9
	h-32.9L1271.8,642z M1276.6,724.4h49.4l-19.9-67.4c-1.4-4.7-2.6-6.9-4.7-6.9s-3.3,2.1-4.7,6.9L1276.6,724.4z"/>
<path class="st0" d="M1428.9,788.5c-7.6,0-22.7,0-22.7-14.9c0-11.1,5.2-17,10.2-24.4l62-93.4c1.4-2.1,2.8-4.3,2.8-6.4
	c0-1.4-0.7-1.7-4.5-1.7h-64.1v-24.8h90.6c9.2,0,18.7,0.2,18.7,13.7c0,10.7-5.4,17.3-9.5,23.7l-63.2,96.5c-0.9,1.4-2.4,3.5-2.4,5.2
	c0,1.7,1.2,1.7,2.8,1.7h69.6v24.8H1428.9z"/>
<rect x="1562.2" y="622.9" class="st0" width="31.2" height="165.6"/>
<path class="st0" d="M1669.6,788.5c-14.2,0-24.1-5.9-24.1-24.8V622.9h31.2v128.9c0,9.5,2.4,11.8,11.8,11.8h60.6v24.8L1669.6,788.5
	L1669.6,788.5z"/>
<text transform="matrix(1.0289 0 0 1 1508.7263 922.8551)" class="st0 st1 st2">2023</text>
</svg>
